<svg width="512" height="512" viewBox="0 0 512 512" fill="none" xmlns="http://www.w3.org/2000/svg">
<rect width="512" height="512" fill="#F9F9F9"/>
<rect x="-64" y="-7109" width="1496" height="11253" rx="32" fill="#F9FAFB"/>
<g filter="url(#filter0_d_4_463)">
<rect width="512" height="512" rx="48" fill="white"/>
<path fill-rule="evenodd" clip-rule="evenodd" d="M256 30C127.82 30 24 133.693 24 261.716C24 364.251 90.41 450.855 182.63 481.557C194.23 483.585 198.58 476.633 198.58 470.551C198.58 465.048 198.29 446.8 198.29 427.394C140 438.111 124.92 413.201 120.28 400.167C117.67 393.505 106.36 372.94 96.5 367.437C88.38 363.092 76.78 352.375 96.21 352.086C114.48 351.796 127.53 368.885 131.88 375.837C152.76 410.884 186.11 401.036 199.45 394.953C201.48 379.892 207.57 369.754 214.24 363.961C162.62 358.168 108.68 338.183 108.68 249.551C108.68 224.352 117.67 203.498 132.46 187.277C130.14 181.485 122.02 157.734 134.78 125.873C134.78 125.873 154.21 119.79 198.58 149.624C217.14 144.41 236.86 141.803 256.58 141.803C276.3 141.803 296.02 144.41 314.58 149.624C358.95 119.5 378.38 125.873 378.38 125.873C391.14 157.734 383.02 181.485 380.7 187.277C395.49 203.498 404.48 224.062 404.48 249.551C404.48 338.472 350.25 358.168 298.63 363.961C307.04 371.202 314.29 385.105 314.29 406.829C314.29 437.821 314 462.73 314 470.551C314 476.633 318.35 483.874 329.95 481.557C421.59 450.855 488 363.961 488 261.716C488 133.693 384.18 30 256 30Z" fill="#111827"/>
</g>
<defs>
<filter id="filter0_d_4_463" x="-38" y="-3252" width="1444" height="7020" filterUnits="userSpaceOnUse" color-interpolation-filters="sRGB">
<feFlood flood-opacity="0" result="BackgroundImageFix"/>
<feColorMatrix in="SourceAlpha" type="matrix" values="0 0 0 0 0 0 0 0 0 0 0 0 0 0 0 0 0 0 127 0" result="hardAlpha"/>
<feOffset dy="2"/>
<feGaussianBlur stdDeviation="3"/>
<feComposite in2="hardAlpha" operator="out"/>
<feColorMatrix type="matrix" values="0 0 0 0 0 0 0 0 0 0 0 0 0 0 0 0 0 0 0.05 0"/>
<feBlend mode="normal" in2="BackgroundImageFix" result="effect1_dropShadow_4_463"/>
<feBlend mode="normal" in="SourceGraphic" in2="effect1_dropShadow_4_463" result="shape"/>
</filter>
</defs>
</svg>
